<svg width="18" height="19" viewBox="0 0 18 19" fill="none" xmlns="http://www.w3.org/2000/svg">
<path d="M4.5 5L6 3.5M6 3.5L4.5 2M6 3.5H4.5C2.84315 3.5 1.5 4.84315 1.5 6.5M13.5 14L12 15.5M12 15.5L13.5 17M12 15.5H13.5C15.1569 15.5 16.5 14.1569 16.5 12.5M7.64177 5.375C8.14132 3.43412 9.90318 2 12 2C14.4853 2 16.5 4.01472 16.5 6.5C16.5 8.5968 15.0659 10.3587 13.125 10.8582M10.5 12.5C10.5 14.9853 8.48528 17 6 17C3.51472 17 1.5 14.9853 1.5 12.5C1.5 10.0147 3.51472 8 6 8C8.48528 8 10.5 10.0147 10.5 12.5Z" stroke="#D0241F" stroke-width="1.5" stroke-linecap="round" stroke-linejoin="round"/>
</svg>
