<svg width="18" height="19" viewBox="0 0 18 19" fill="none" xmlns="http://www.w3.org/2000/svg">
<path d="M6.75 7.25H6.7575M11.25 11.75H11.2575M12 6.5L6 12.5M5.50033 3.36402C6.1032 3.31591 6.67553 3.07884 7.13585 2.68656C8.21004 1.77115 9.78996 1.77115 10.8641 2.68656C11.3245 3.07884 11.8968 3.31591 12.4997 3.36402C13.9065 3.47629 15.0237 4.59346 15.136 6.00033C15.1841 6.6032 15.4212 7.17553 15.8134 7.63585C16.7289 8.71004 16.7289 10.29 15.8134 11.3641C15.4212 11.8245 15.1841 12.3968 15.136 12.9997C15.0237 14.4065 13.9065 15.5237 12.4997 15.636C11.8968 15.6841 11.3245 15.9212 10.8641 16.3134C9.78996 17.2289 8.21004 17.2289 7.13585 16.3134C6.67553 15.9212 6.1032 15.6841 5.50033 15.636C4.09346 15.5237 2.97629 14.4065 2.86402 12.9997C2.81591 12.3968 2.57884 11.8245 2.18656 11.3641C1.27115 10.29 1.27115 8.71004 2.18656 7.63585C2.57884 7.17553 2.81591 6.6032 2.86402 6.00033C2.97629 4.59346 4.09346 3.47629 5.50033 3.36402ZM7.125 7.25C7.125 7.45711 6.95711 7.625 6.75 7.625C6.54289 7.625 6.375 7.45711 6.375 7.25C6.375 7.04289 6.54289 6.875 6.75 6.875C6.95711 6.875 7.125 7.04289 7.125 7.25ZM11.625 11.75C11.625 11.9571 11.4571 12.125 11.25 12.125C11.0429 12.125 10.875 11.9571 10.875 11.75C10.875 11.5429 11.0429 11.375 11.25 11.375C11.4571 11.375 11.625 11.5429 11.625 11.75Z" stroke="#D0241F" stroke-width="1.5" stroke-linecap="round" stroke-linejoin="round"/>
</svg>
