<svg width="18" height="19" viewBox="0 0 18 19" fill="none" xmlns="http://www.w3.org/2000/svg">
<path d="M15 8V5.6C15 4.33988 15 3.70982 14.7548 3.22852C14.5391 2.80516 14.1948 2.46095 13.7715 2.24524C13.2902 2 12.6601 2 11.4 2H6.6C5.33988 2 4.70982 2 4.22852 2.24524C3.80516 2.46095 3.46095 2.80516 3.24524 3.22852C3 3.70982 3 4.33988 3 5.6V13.4C3 14.6601 3 15.2902 3.24524 15.7715C3.46095 16.1948 3.80516 16.539 4.22852 16.7548C4.70982 17 5.33988 17 6.6 17H7.875M9.75 8.75H6M8.25 11.75H6M12 5.75H6M14.4375 13.25V11.9375C14.4375 11.2126 13.8499 10.625 13.125 10.625C12.4001 10.625 11.8125 11.2126 11.8125 11.9375V13.25M11.7 16.25H14.55C14.97 16.25 15.1801 16.25 15.3405 16.1683C15.4816 16.0963 15.5964 15.9816 15.6683 15.8405C15.75 15.6801 15.75 15.47 15.75 15.05V14.45C15.75 14.03 15.75 13.8199 15.6683 13.6595C15.5964 13.5184 15.4816 13.4036 15.3405 13.3317C15.1801 13.25 14.97 13.25 14.55 13.25H11.7C11.28 13.25 11.0699 13.25 10.9095 13.3317C10.7684 13.4036 10.6537 13.5184 10.5817 13.6595C10.5 13.8199 10.5 14.03 10.5 14.45V15.05C10.5 15.47 10.5 15.6801 10.5817 15.8405C10.6537 15.9816 10.7684 16.0963 10.9095 16.1683C11.0699 16.25 11.28 16.25 11.7 16.25Z" stroke="#D0241F" stroke-width="1.5" stroke-linecap="round" stroke-linejoin="round"/>
</svg>
