<svg xmlns="http://www.w3.org/2000/svg">
  <symbol id="local" width="16" height="16" viewBox="0 0 16 16" fill="none" xmlns="http://www.w3.org/2000/svg">
    <path d="M8.00008 8.66659C9.10465 8.66659 10.0001 7.77115 10.0001 6.66659C10.0001 5.56202 9.10465 4.66659 8.00008 4.66659C6.89551 4.66659 6.00008 5.56202 6.00008 6.66659C6.00008 7.77115 6.89551 8.66659 8.00008 8.66659Z" stroke="currentColor" stroke-linecap="round" stroke-linejoin="round" />
    <path d="M8.00008 14.6666C10.6667 11.9999 13.3334 9.6121 13.3334 6.66659C13.3334 3.72107 10.9456 1.33325 8.00008 1.33325C5.05456 1.33325 2.66675 3.72107 2.66675 6.66659C2.66675 9.6121 5.33341 11.9999 8.00008 14.6666Z" stroke="currentColor" stroke-linecap="round" stroke-linejoin="round" />
  </symbol>

  <symbol id="phone" width="16" height="16" viewBox="0 0 16 16" fill="none" xmlns="http://www.w3.org/2000/svg">
    <path d="M5.58685 5.90223C6.05085 6.86865 6.68337 7.77441 7.48443 8.57546C8.28548 9.37651 9.19124 10.009 10.1577 10.473C10.2408 10.5129 10.2823 10.5329 10.3349 10.5482C10.5218 10.6027 10.7513 10.5636 10.9096 10.4502C10.9542 10.4183 10.9923 10.3802 11.0685 10.304C11.3016 10.071 11.4181 9.95443 11.5353 9.87824C11.9772 9.59091 12.5469 9.59091 12.9889 9.87824C13.106 9.95443 13.2226 10.071 13.4556 10.304L13.5856 10.4339C13.9398 10.7882 14.117 10.9654 14.2132 11.1556C14.4046 11.534 14.4046 11.9809 14.2132 12.3592C14.117 12.5495 13.9399 12.7266 13.5856 13.0809L13.4805 13.186C13.1274 13.5391 12.9508 13.7156 12.7108 13.8505C12.4445 14.0001 12.0308 14.1077 11.7253 14.1068C11.45 14.1059 11.2619 14.0525 10.8856 13.9457C8.86333 13.3718 6.95509 12.2888 5.36311 10.6968C3.77112 9.10479 2.68814 7.19655 2.11416 5.17429C2.00735 4.79799 1.95395 4.60984 1.95313 4.33455C1.95222 4.02906 2.0598 3.6154 2.20941 3.34907C2.34424 3.10904 2.52078 2.9325 2.87386 2.57942L2.97895 2.47433C3.33325 2.12004 3.5104 1.94289 3.70065 1.84666C4.07903 1.65528 4.52587 1.65528 4.90424 1.84666C5.0945 1.94289 5.27164 2.12004 5.62594 2.47433L5.75585 2.60424C5.98892 2.83732 6.10546 2.95385 6.18165 3.07104C6.46898 3.51296 6.46898 4.08268 6.18165 4.52461C6.10546 4.6418 5.98892 4.75833 5.75585 4.9914C5.67964 5.06761 5.64154 5.10571 5.60965 5.15026C5.4963 5.30854 5.45717 5.53805 5.51165 5.72495C5.52698 5.77754 5.54694 5.81911 5.58685 5.90223Z" stroke="#D0241F" stroke-linecap="round" stroke-linejoin="round" />
  </symbol>

  <symbol id="favourites" width="20" height="20" viewBox="0 0 20 20" fill="none" xmlns="http://www.w3.org/2000/svg">
    <path fill-rule="evenodd" clip-rule="evenodd" d="M9.99437 4.27985C8.32825 2.332 5.54987 1.80804 3.46233 3.59168C1.37478 5.37532 1.08089 8.35748 2.72025 10.467C4.08326 12.2209 8.20823 15.9201 9.56017 17.1174C9.71142 17.2513 9.78705 17.3183 9.87526 17.3446C9.95225 17.3676 10.0365 17.3676 10.1135 17.3446C10.2017 17.3183 10.2773 17.2513 10.4286 17.1174C11.7805 15.9201 15.9055 12.2209 17.2685 10.467C18.9079 8.35748 18.6498 5.35656 16.5264 3.59168C14.403 1.8268 11.6605 2.332 9.99437 4.27985Z" stroke="currentColor" stroke-width="1.5" stroke-linecap="round" stroke-linejoin="round" />
  </symbol>

  <symbol id="comparison" width="20" height="20" viewBox="0 0 20 20" fill="none" xmlns="http://www.w3.org/2000/svg">
    <path d="M15 16.6666V8.33325M10 16.6666V3.33325M5 16.6666V11.6666" stroke="currentColor" stroke-width="1.5" stroke-linecap="round" stroke-linejoin="round" />
  </symbol>

  <symbol id="basket" width="20" height="20" viewBox="0 0 20 20" fill="none" xmlns="http://www.w3.org/2000/svg">
    <path d="M1.66675 1.66675H2.75522C2.96023 1.66675 3.06274 1.66675 3.14523 1.70445C3.21793 1.73767 3.27954 1.7911 3.32271 1.85837C3.37169 1.9347 3.38619 2.03618 3.41518 2.23913L3.80961 5.00008M3.80961 5.00008L4.68618 11.4429C4.79742 12.2605 4.85304 12.6693 5.0485 12.977C5.22073 13.2482 5.46765 13.4638 5.75954 13.5979C6.0908 13.7501 6.50337 13.7501 7.3285 13.7501H14.4601C15.2455 13.7501 15.6383 13.7501 15.9592 13.6088C16.2422 13.4842 16.485 13.2833 16.6603 13.0286C16.8592 12.7398 16.9327 12.354 17.0796 11.5824L18.1827 5.79149C18.2344 5.51992 18.2603 5.38414 18.2228 5.278C18.1899 5.18489 18.125 5.10649 18.0397 5.05676C17.9425 5.00008 17.8042 5.00008 17.5278 5.00008H3.80961ZM8.33341 17.5001C8.33341 17.9603 7.96032 18.3334 7.50008 18.3334C7.03984 18.3334 6.66675 17.9603 6.66675 17.5001C6.66675 17.0398 7.03984 16.6667 7.50008 16.6667C7.96032 16.6667 8.33341 17.0398 8.33341 17.5001ZM15.0001 17.5001C15.0001 17.9603 14.627 18.3334 14.1667 18.3334C13.7065 18.3334 13.3334 17.9603 13.3334 17.5001C13.3334 17.0398 13.7065 16.6667 14.1667 16.6667C14.627 16.6667 15.0001 17.0398 15.0001 17.5001Z" stroke="currentColor" stroke-width="1.5" stroke-linecap="round" stroke-linejoin="round" />
  </symbol>

  <symbol id="login" width="20" height="20" viewBox="0 0 20 20" fill="none" xmlns="http://www.w3.org/2000/svg">
    <path d="M16.6666 17.5C16.6666 16.337 16.6666 15.7555 16.5231 15.2824C16.1999 14.217 15.3662 13.3834 14.3009 13.0602C13.8277 12.9167 13.2462 12.9167 12.0832 12.9167H7.91659C6.75362 12.9167 6.17213 12.9167 5.69897 13.0602C4.63363 13.3834 3.79995 14.217 3.47678 15.2824C3.33325 15.7555 3.33325 16.337 3.33325 17.5M13.7499 6.25C13.7499 8.32107 12.071 10 9.99992 10C7.92885 10 6.24992 8.32107 6.24992 6.25C6.24992 4.17893 7.92885 2.5 9.99992 2.5C12.071 2.5 13.7499 4.17893 13.7499 6.25Z" stroke="currentColor" stroke-width="1.5" stroke-linecap="round" stroke-linejoin="round" />
  </symbol>

  <symbol id="acs" width="70" height="27" viewBox="0 0 70 27" fill="none" xmlns="http://www.w3.org/2000/svg">
    <path d="M7.256 21.41L7.664 17.024H19.462L19.836 21.41H7.256ZM13.478 10.938L10.146 18.622L10.418 19.88L7.46 26H0.966L13.478 0.703999L26.024 26H19.496L16.64 20.118L16.844 18.656L13.478 10.938ZM28.518 2.2H34.468V26H28.518V2.2ZM42.56 2.2H49.292L39.636 13.352L49.802 26H42.832L32.802 13.522L42.56 2.2ZM55.494 14.1C55.494 15.5507 55.8227 16.8087 56.48 17.874C57.1374 18.9167 57.9987 19.71 59.064 20.254C60.152 20.798 61.342 21.07 62.634 21.07C63.7674 21.07 64.7647 20.9227 65.626 20.628C66.4874 20.3333 67.258 19.948 67.938 19.472C68.618 18.996 69.2187 18.486 69.74 17.942V24.13C68.788 24.878 67.7454 25.4673 66.612 25.898C65.4787 26.3287 64.0394 26.544 62.294 26.544C60.39 26.544 58.6334 26.2493 57.024 25.66C55.4147 25.0707 54.032 24.2207 52.876 23.11C51.72 21.9993 50.8247 20.6847 50.19 19.166C49.5554 17.6473 49.238 15.9587 49.238 14.1C49.238 12.2413 49.5554 10.5527 50.19 9.034C50.8247 7.51533 51.72 6.20067 52.876 5.09C54.032 3.97933 55.4147 3.12933 57.024 2.54C58.6334 1.95067 60.39 1.656 62.294 1.656C64.0394 1.656 65.4787 1.87133 66.612 2.302C67.7454 2.73267 68.788 3.322 69.74 4.07V10.258C69.2187 9.714 68.618 9.204 67.938 8.728C67.258 8.22933 66.4874 7.844 65.626 7.572C64.7647 7.27733 63.7674 7.13 62.634 7.13C61.342 7.13 60.152 7.402 59.064 7.946C57.9987 8.49 57.1374 9.28333 56.48 10.326C55.8227 11.3687 55.494 12.6267 55.494 14.1Z" fill="#D0241F"/>
  </symbol>

  <symbol id="acsFooter" width="91" height="37" viewBox="0 0 91 37" fill="none" xmlns="http://www.w3.org/2000/svg">
    <path d="M8.57718 29.6487L9.13354 23.3684H25.2216L25.7316 29.6487H8.57718ZM17.0616 14.6539L12.5181 25.6566L12.889 27.4579L8.85536 36.2211H0L17.0616 0L34.1696 36.2211H25.2679L21.3734 27.7987L21.6516 25.7053L17.0616 14.6539Z" fill="#E83832" />
    <path d="M36.1796 2.1421H44.2931V36.2211H36.1796V2.1421ZM55.3275 2.1421H64.5074L51.3403 18.1105L65.2029 36.2211H55.6984L42.0213 18.3539L55.3275 2.1421Z" fill="#E83832" />
    <path d="M71.5738 19.1816C71.5738 21.2588 72.022 23.0601 72.9184 24.5855C73.8147 26.0785 74.9893 27.2145 76.442 27.9934C77.9256 28.7724 79.5483 29.1618 81.3101 29.1618C82.8555 29.1618 84.2155 28.9509 85.3901 28.5289C86.5646 28.107 87.6155 27.5553 88.5428 26.8737C89.47 26.1921 90.2891 25.4618 91 24.6829V33.5434C89.7018 34.6145 88.28 35.4583 86.7346 36.075C85.1891 36.6917 83.2264 37 80.8465 37C78.2501 37 75.8547 36.5781 73.6602 35.7342C71.4657 34.8904 69.5802 33.6732 68.0039 32.0829C66.4275 30.4925 65.2066 28.6101 64.3412 26.4355C63.4757 24.261 63.043 21.843 63.043 19.1816C63.043 16.5202 63.4757 14.1022 64.3412 11.9276C65.2066 9.75307 66.4275 7.87061 68.0039 6.28026C69.5802 4.68991 71.4657 3.47281 73.6602 2.62895C75.8547 1.78509 78.2501 1.36316 80.8465 1.36316C83.2264 1.36316 85.1891 1.67149 86.7346 2.28816C88.28 2.90482 89.7018 3.74868 91 4.81974V13.6803C90.2891 12.9013 89.47 12.1711 88.5428 11.4895C87.6155 10.7754 86.5646 10.2237 85.3901 9.83421C84.2155 9.41228 82.8555 9.20132 81.3101 9.20132C79.5483 9.20132 77.9256 9.59079 76.442 10.3697C74.9893 11.1487 73.8147 12.2846 72.9184 13.7776C72.022 15.2706 71.5738 17.0719 71.5738 19.1816Z" fill="#E83832" />
  </symbol>

  <symbol id="catalogBtn" width="20" height="20" viewBox="0 0 20 20" fill="none" xmlns="http://www.w3.org/2000/svg">
    <path d="M7 2.5H3.83333C3.36662 2.5 3.13327 2.5 2.95501 2.59083C2.79821 2.67072 2.67072 2.79821 2.59083 2.95501C2.5 3.13327 2.5 3.36662 2.5 3.83333V7C2.5 7.46671 2.5 7.70007 2.59083 7.87833C2.67072 8.03513 2.79821 8.16261 2.95501 8.24251C3.13327 8.33333 3.36662 8.33333 3.83333 8.33333H7C7.46671 8.33333 7.70007 8.33333 7.87833 8.24251C8.03513 8.16261 8.16261 8.03513 8.24251 7.87833C8.33333 7.70007 8.33333 7.46671 8.33333 7V3.83333C8.33333 3.36662 8.33333 3.13327 8.24251 2.95501C8.16261 2.79821 8.03513 2.67072 7.87833 2.59083C7.70007 2.5 7.46671 2.5 7 2.5Z" stroke="currentColor" stroke-width="1.5" stroke-linecap="round" stroke-linejoin="round" />
    <path d="M16.1667 2.5H13C12.5333 2.5 12.2999 2.5 12.1217 2.59083C11.9649 2.67072 11.8374 2.79821 11.7575 2.95501C11.6667 3.13327 11.6667 3.36662 11.6667 3.83333V7C11.6667 7.46671 11.6667 7.70007 11.7575 7.87833C11.8374 8.03513 11.9649 8.16261 12.1217 8.24251C12.2999 8.33333 12.5333 8.33333 13 8.33333H16.1667C16.6334 8.33333 16.8667 8.33333 17.045 8.24251C17.2018 8.16261 17.3293 8.03513 17.4092 7.87833C17.5 7.70007 17.5 7.46671 17.5 7V3.83333C17.5 3.36662 17.5 3.13327 17.4092 2.95501C17.3293 2.79821 17.2018 2.67072 17.045 2.59083C16.8667 2.5 16.6334 2.5 16.1667 2.5Z" stroke="currentColor" stroke-width="1.5" stroke-linecap="round" stroke-linejoin="round" />
    <path d="M16.1667 11.6667H13C12.5333 11.6667 12.2999 11.6667 12.1217 11.7575C11.9649 11.8374 11.8374 11.9649 11.7575 12.1217C11.6667 12.2999 11.6667 12.5333 11.6667 13V16.1667C11.6667 16.6334 11.6667 16.8667 11.7575 17.045C11.8374 17.2018 11.9649 17.3293 12.1217 17.4092C12.2999 17.5 12.5333 17.5 13 17.5H16.1667C16.6334 17.5 16.8667 17.5 17.045 17.4092C17.2018 17.3293 17.3293 17.2018 17.4092 17.045C17.5 16.8667 17.5 16.6334 17.5 16.1667V13C17.5 12.5333 17.5 12.2999 17.4092 12.1217C17.3293 11.9649 17.2018 11.8374 17.045 11.7575C16.8667 11.6667 16.6334 11.6667 16.1667 11.6667Z" stroke="currentColor" stroke-width="1.5" stroke-linecap="round" stroke-linejoin="round" />
    <path d="M7 11.6667H3.83333C3.36662 11.6667 3.13327 11.6667 2.95501 11.7575C2.79821 11.8374 2.67072 11.9649 2.59083 12.1217C2.5 12.2999 2.5 12.5333 2.5 13V16.1667C2.5 16.6334 2.5 16.8667 2.59083 17.045C2.67072 17.2018 2.79821 17.3293 2.95501 17.4092C3.13327 17.5 3.36662 17.5 3.83333 17.5H7C7.46671 17.5 7.70007 17.5 7.87833 17.4092C8.03513 17.3293 8.16261 17.2018 8.24251 17.045C8.33333 16.8667 8.33333 16.6334 8.33333 16.1667V13C8.33333 12.5333 8.33333 12.2999 8.24251 12.1217C8.16261 11.9649 8.03513 11.8374 7.87833 11.7575C7.70007 11.6667 7.46671 11.6667 7 11.6667Z" stroke="currentColor" stroke-width="1.5" stroke-linecap="round" stroke-linejoin="round" />
  </symbol>

  <symbol id="searchBtn" width="20" height="20" viewBox="0 0 20 20" fill="none" xmlns="http://www.w3.org/2000/svg">
    <path d="M17.5 17.5L13.875 13.875M15.8333 9.16667C15.8333 12.8486 12.8486 15.8333 9.16667 15.8333C5.48477 15.8333 2.5 12.8486 2.5 9.16667C2.5 5.48477 5.48477 2.5 9.16667 2.5C12.8486 2.5 15.8333 5.48477 15.8333 9.16667Z" stroke="currentColor" stroke-width="1.5" stroke-linecap="round" stroke-linejoin="round" />
  </symbol>

  <symbol id="dropDown1" width="12" height="12" viewBox="0 0 12 12" fill="none" xmlns="http://www.w3.org/2000/svg">
    <path d="M3 4.5L6 7.5L9 4.5" stroke="currentColor" stroke-width="1.5" stroke-linecap="round" stroke-linejoin="round" />
  </symbol>

  <symbol id="dropDown2" width="25" height="24" viewBox="0 0 25 24" fill="none" xmlns="http://www.w3.org/2000/svg">
    <path d="M6.33337 9L11.6263 14.2929C11.9596 14.6262 12.1263 14.7929 12.3334 14.7929C12.5405 14.7929 12.7071 14.6262 13.0405 14.2929L18.3334 9" stroke="currentColor" stroke-width="1.5" stroke-linecap="round" stroke-linejoin="round" />
  </symbol>

  <symbol id="arrTabs1" width="24" height="24" viewBox="0 0 24 24" fill="none" xmlns="http://www.w3.org/2000/svg">
    <path d="M6 9L11.2929 14.2929C11.6262 14.6262 11.7929 14.7929 12 14.7929C12.2071 14.7929 12.3738 14.6262 12.7071 14.2929L18 9" stroke="currentColor" stroke-width="1.5" stroke-linecap="round" stroke-linejoin="round" />
  </symbol>

  <symbol id="reviewsStar" width="22" height="21" viewBox="0 0 22 21" fill="none" xmlns="http://www.w3.org/2000/svg">
    <path d="M11 0.5L14.3621 6.87242L21.4616 8.10081L16.44 13.2676L17.4656 20.3992L11 17.22L4.53436 20.3992L5.55996 13.2676L0.538379 8.10081L7.63787 6.87242L11 0.5Z" fill="#FF9E00" />
  </symbol>

  <symbol id="reviewsStarCard" width="20" height="19" viewBox="0 0 20 19" fill="none" xmlns="http://www.w3.org/2000/svg">
    <path d="M10 0L13.0565 5.79311L19.5106 6.90983L14.9455 11.6069L15.8779 18.0902L10 15.2L4.12215 18.0902L5.05451 11.6069L0.489435 6.90983L6.94352 5.79311L10 0Z" fill="currentColor" />
  </symbol>

  <symbol id="like" width="20" height="20" viewBox="0 0 20 20" fill="none" xmlns="http://www.w3.org/2000/svg">
    <path fill-rule="evenodd" clip-rule="evenodd" d="M9.99425 4.27985C8.32813 2.332 5.54975 1.80804 3.46221 3.59168C1.37466 5.37532 1.08077 8.35748 2.72012 10.467C4.08314 12.2209 8.2081 15.9201 9.56004 17.1174C9.7113 17.2513 9.78692 17.3183 9.87514 17.3446C9.95213 17.3676 10.0364 17.3676 10.1134 17.3446C10.2016 17.3183 10.2772 17.2513 10.4285 17.1174C11.7804 15.9201 15.9054 12.2209 17.2684 10.467C18.9077 8.35748 18.6497 5.35656 16.5263 3.59168C14.4029 1.8268 11.6604 2.332 9.99425 4.27985Z" stroke="currentColor" stroke-width="1.5" stroke-linecap="round" stroke-linejoin="round" />
  </symbol>

  <symbol id="compare" width="20" height="20" viewBox="0 0 20 20" fill="none" xmlns="http://www.w3.org/2000/svg">
    <path d="M15 16.6663V8.33301M10 16.6663V3.33301M5 16.6663V11.6663" stroke="currentColor" stroke-width="1.5" stroke-linecap="round" stroke-linejoin="round" />
  </symbol>

  <symbol id="linkBasket" width="18" height="18" viewBox="0 0 18 18" fill="none" xmlns="http://www.w3.org/2000/svg">
    <g clip-path="url(#clip0_51_479)">
      <path d="M1.5 1.5H2.47962C2.66414 1.5 2.75639 1.5 2.83064 1.53393C2.89606 1.56383 2.95151 1.61192 2.99036 1.67246C3.03445 1.74116 3.0475 1.83249 3.07359 2.01515L3.42857 4.5M3.42857 4.5L4.21749 10.2986C4.3176 11.0344 4.36766 11.4023 4.54357 11.6793C4.69858 11.9233 4.92081 12.1173 5.18352 12.238C5.48165 12.375 5.85296 12.375 6.59558 12.375H13.014C13.7209 12.375 14.0744 12.375 14.3632 12.2478C14.6179 12.1357 14.8364 11.9549 14.9942 11.7257C15.1732 11.4657 15.2393 11.1185 15.3716 10.4241L16.3643 5.21227C16.4109 4.96786 16.4342 4.84565 16.4004 4.75012C16.3708 4.66633 16.3124 4.59576 16.2357 4.55101C16.1481 4.5 16.0237 4.5 15.7749 4.5H3.42857ZM7.5 15.75C7.5 16.1642 7.16421 16.5 6.75 16.5C6.33579 16.5 6 16.1642 6 15.75C6 15.3358 6.33579 15 6.75 15C7.16421 15 7.5 15.3358 7.5 15.75ZM13.5 15.75C13.5 16.1642 13.1642 16.5 12.75 16.5C12.3358 16.5 12 16.1642 12 15.75C12 15.3358 12.3358 15 12.75 15C13.1642 15 13.5 15.3358 13.5 15.75Z" stroke="white" stroke-width="1.5" stroke-linecap="round" stroke-linejoin="round" />
    </g>
    <defs>
      <clipPath id="clip0_51_479">
        <rect width="18" height="18" fill="white" />
      </clipPath>
    </defs>
  </symbol>

  <symbol id="vk" width="25" height="24" viewBox="0 0 25 24" fill="none" xmlns="http://www.w3.org/2000/svg">
    <g clip-path="url(#clip0_141_984)">
      <path d="M13.7384 19.4854C5.53855 19.4854 0.861516 13.8639 0.666626 4.50977H4.77407C4.90898 11.3755 7.93703 14.2836 10.3355 14.8833V4.50977H14.2032V10.431C16.5717 10.1762 19.0599 7.47791 19.8994 4.50977H23.767C23.1224 8.16749 20.4241 10.8658 18.5053 11.9751C20.4241 12.8745 23.4974 15.228 24.6666 19.4854H20.4092C19.4947 16.6372 17.2163 14.4335 14.2032 14.1337V19.4854H13.7384Z" fill="white" />
    </g>
    <defs>
      <clipPath id="clip0_141_984">
        <rect width="24" height="24" fill="white" transform="translate(0.666626)" />
      </clipPath>
    </defs>
  </symbol>

  <symbol id="tg" width="25" height="24" viewBox="0 0 25 24" fill="none" xmlns="http://www.w3.org/2000/svg">
    <path fill-rule="evenodd" clip-rule="evenodd" d="M3.17901 10.8488C9.08458 8.27585 13.0226 6.57959 14.9929 5.76003C20.6187 3.42005 21.7877 3.01357 22.5497 3.00014C22.7172 2.99719 23.0919 3.03872 23.3347 3.23567C23.5396 3.40197 23.596 3.62661 23.623 3.78428C23.65 3.94195 23.6836 4.30112 23.6568 4.58177C23.352 7.78504 22.0328 15.5585 21.3617 19.1462C21.0778 20.6643 20.5186 21.1733 19.9773 21.2231C18.8009 21.3314 17.9076 20.4457 16.7682 19.6988C14.9852 18.53 13.978 17.8025 12.2473 16.662C10.2472 15.3439 11.5438 14.6195 12.6836 13.4356C12.9819 13.1258 18.1652 8.41117 18.2655 7.98348C18.2781 7.92999 18.2897 7.7306 18.1713 7.62532C18.0528 7.52004 17.878 7.55604 17.7518 7.58467C17.573 7.62526 14.7247 9.50789 9.20698 13.2326C8.3985 13.7877 7.66621 14.0582 7.0101 14.044C6.28679 14.0284 4.89543 13.6351 3.8611 13.2988C2.59245 12.8865 1.58416 12.6684 1.67196 11.9681C1.71769 11.6033 2.22004 11.2302 3.17901 10.8488Z" fill="white" />
  </symbol>

  <symbol id="wu" width="25" height="24" viewBox="0 0 25 24" fill="none" xmlns="http://www.w3.org/2000/svg">
    <path d="M0.666626 24L2.35363 17.837C1.31263 16.033 0.765626 13.988 0.766626 11.891C0.769626 5.335 6.10463 0 12.6596 0C15.8406 0.001 18.8266 1.24 21.0726 3.488C23.3176 5.736 24.5536 8.724 24.5526 11.902C24.5496 18.459 19.2146 23.794 12.6596 23.794C10.6696 23.793 8.70863 23.294 6.97163 22.346L0.666626 24ZM7.26363 20.193C8.93963 21.188 10.5396 21.784 12.6556 21.785C18.1036 21.785 22.5416 17.351 22.5446 11.9C22.5466 6.438 18.1296 2.01 12.6636 2.008C7.21163 2.008 2.77663 6.442 2.77463 11.892C2.77363 14.117 3.42563 15.783 4.52063 17.526L3.52163 21.174L7.26363 20.193ZM18.6506 14.729C18.5766 14.605 18.3786 14.531 18.0806 14.382C17.7836 14.233 16.3226 13.514 16.0496 13.415C15.7776 13.316 15.5796 13.266 15.3806 13.564C15.1826 13.861 14.6126 14.531 14.4396 14.729C14.2666 14.927 14.0926 14.952 13.7956 14.803C13.4986 14.654 12.5406 14.341 11.4056 13.328C10.5226 12.54 9.92563 11.567 9.75263 11.269C9.57963 10.972 9.73463 10.811 9.88263 10.663C10.0166 10.53 10.1796 10.316 10.3286 10.142C10.4796 9.97 10.5286 9.846 10.6286 9.647C10.7276 9.449 10.6786 9.275 10.6036 9.126C10.5286 8.978 9.93463 7.515 9.68763 6.92C9.44563 6.341 9.20063 6.419 9.01863 6.41L8.44863 6.4C8.25063 6.4 7.92863 6.474 7.65663 6.772C7.38463 7.07 6.61663 7.788 6.61663 9.251C6.61663 10.714 7.68163 12.127 7.82963 12.325C7.97863 12.523 9.92463 15.525 12.9056 16.812C13.6146 17.118 14.1686 17.301 14.5996 17.438C15.3116 17.664 15.9596 17.632 16.4716 17.556C17.0426 17.471 18.2296 16.837 18.4776 16.143C18.7256 15.448 18.7256 14.853 18.6506 14.729Z" fill="white" />
  </symbol>

  <symbol id="ut" width="25" height="24" viewBox="0 0 25 24" fill="none" xmlns="http://www.w3.org/2000/svg">
    <path d="M22.9995 6.81641C22.7509 5.89318 22.023 5.16525 21.0998 4.91669C19.4131 4.45508 12.6664 4.45508 12.6664 4.45508C12.6664 4.45508 5.91977 4.45508 4.2331 4.89894C3.32763 5.1475 2.58195 5.89318 2.33339 6.81641C1.88953 8.50308 1.88953 12.0007 1.88953 12.0007C1.88953 12.0007 1.88953 15.5161 2.33339 17.185C2.58195 18.1082 3.30988 18.8361 4.2331 19.0847C5.93752 19.5463 12.6664 19.5463 12.6664 19.5463C12.6664 19.5463 19.4131 19.5463 21.0998 19.1024C22.023 18.8539 22.7509 18.126 22.9995 17.2027C23.4433 15.5161 23.4433 12.0184 23.4433 12.0184C23.4433 12.0184 23.4611 8.50308 22.9995 6.81641Z" fill="white" />
    <path d="M10.5182 15.2321L16.1286 12.0008L10.5182 8.76953V15.2321Z" fill="#1A2A42" />
  </symbol>

  <symbol id="dz" width="25" height="24" viewBox="0 0 25 24" fill="none" xmlns="http://www.w3.org/2000/svg">
    <path d="M2.14099 11.7872C6.47087 11.7374 8.89429 11.454 10.5073 9.84095C12.1204 8.22791 12.4038 5.80449 12.4536 1.47461C6.80846 1.58667 2.25305 6.14207 2.14099 11.7872Z" fill="#1F1F21" />
    <path d="M13.0823 1.48055C13.1322 5.8067 13.4161 8.22865 15.0284 9.84095C16.6161 11.4287 18.989 11.7282 23.1923 11.7847C23.0802 6.20836 18.6326 1.69601 13.0823 1.48055Z" fill="#1F1F21" />
    <path d="M23.1863 12.4184C18.9868 12.4751 16.6154 12.7751 15.0284 14.362C13.4414 15.949 13.1415 18.3204 13.0848 22.5199C18.5666 22.3058 22.9722 17.9002 23.1863 12.4184Z" fill="#1F1F21" />
    <path d="M12.4511 22.5259C12.3946 18.3226 12.0951 15.9498 10.5073 14.362C8.89503 12.7497 6.47309 12.4658 2.14693 12.4159C2.3624 17.9662 6.87477 22.4139 12.4511 22.5259Z" fill="#1F1F21" />
  </symbol>

  <symbol id="percent" width="16" height="16" viewBox="0 0 16 16" fill="none" xmlns="http://www.w3.org/2000/svg">
    <path d="M12.6667 3.33333L3.33337 12.6667M6.00004 4.66666C6.00004 5.40304 5.40309 5.99999 4.66671 5.99999C3.93033 5.99999 3.33337 5.40304 3.33337 4.66666C3.33337 3.93028 3.93033 3.33333 4.66671 3.33333C5.40309 3.33333 6.00004 3.93028 6.00004 4.66666ZM12.6667 11.3333C12.6667 12.0697 12.0698 12.6667 11.3334 12.6667C10.597 12.6667 10 12.0697 10 11.3333C10 10.5969 10.597 10 11.3334 10C12.0698 10 12.6667 10.5969 12.6667 11.3333Z" stroke="currentColor" stroke-width="1.5" stroke-linecap="round" stroke-linejoin="round" />
  </symbol>

  <symbol id="wollet" width="16" height="16" viewBox="0 0 16 16" fill="none" xmlns="http://www.w3.org/2000/svg">
    <path d="M14.5 9.5H1.5C1.10218 9.5 0.720644 9.34196 0.43934 9.06066C0.158035 8.77936 0 8.39782 0 8L0 3.5C0 3.36739 0.0526784 3.24021 0.146447 3.14645C0.240215 3.05268 0.367392 3 0.5 3H15.5C15.6326 3 15.7598 3.05268 15.8536 3.14645C15.9473 3.24021 16 3.36739 16 3.5V8C16 8.39782 15.842 8.77936 15.5607 9.06066C15.2794 9.34196 14.8978 9.5 14.5 9.5ZM1 4V8C1 8.13261 1.05268 8.25979 1.14645 8.35355C1.24021 8.44732 1.36739 8.5 1.5 8.5H14.5C14.6326 8.5 14.7598 8.44732 14.8536 8.35355C14.9473 8.25979 15 8.13261 15 8V4H1Z" fill="#D0241F" />
    <path d="M14.5 15H1.5C1.36739 15 1.24021 14.9473 1.14645 14.8536C1.05268 14.7598 1 14.6326 1 14.5V9C1 8.86739 1.05268 8.74021 1.14645 8.64645C1.24021 8.55268 1.36739 8.5 1.5 8.5C1.63261 8.5 1.75979 8.55268 1.85355 8.64645C1.94732 8.74021 2 8.86739 2 9V14H14V9C14 8.86739 14.0527 8.74021 14.1464 8.64645C14.2402 8.55268 14.3674 8.5 14.5 8.5C14.6326 8.5 14.7598 8.55268 14.8536 8.64645C14.9473 8.74021 15 8.86739 15 9V14.5C15 14.6326 14.9473 14.7598 14.8536 14.8536C14.7598 14.9473 14.6326 15 14.5 15Z" fill="#D0241F" />
    <path d="M10.5 4C10.3674 4 10.2402 3.94732 10.1464 3.85355C10.0527 3.75979 10 3.63261 10 3.5V2.5C10 2.36739 9.94732 2.24021 9.85355 2.14645C9.75979 2.05268 9.63261 2 9.5 2H6.5C6.36739 2 6.24021 2.05268 6.14645 2.14645C6.05268 2.24021 6 2.36739 6 2.5V3.5C6 3.63261 5.94732 3.75979 5.85355 3.85355C5.75979 3.94732 5.63261 4 5.5 4C5.36739 4 5.24021 3.94732 5.14645 3.85355C5.05268 3.75979 5 3.63261 5 3.5V2.5C5 2.10218 5.15804 1.72064 5.43934 1.43934C5.72064 1.15804 6.10218 1 6.5 1H9.5C9.89782 1 10.2794 1.15804 10.5607 1.43934C10.842 1.72064 11 2.10218 11 2.5V3.5C11 3.63261 10.9473 3.75979 10.8536 3.85355C10.7598 3.94732 10.6326 4 10.5 4Z" fill="#D0241F" />
    <path d="M8 11C7.86739 11 7.74021 10.9473 7.64645 10.8536C7.55268 10.7598 7.5 10.6326 7.5 10.5V7.5C7.5 7.36739 7.55268 7.24021 7.64645 7.14645C7.74021 7.05268 7.86739 7 8 7C8.13261 7 8.25979 7.05268 8.35355 7.14645C8.44732 7.24021 8.5 7.36739 8.5 7.5V10.5C8.5 10.6326 8.44732 10.7598 8.35355 10.8536C8.25979 10.9473 8.13261 11 8 11Z" fill="#D0241F" />
  </symbol>

  <symbol id="mail" width="18" height="18" viewBox="0 0 18 18" fill="none" xmlns="http://www.w3.org/2000/svg">
    <path d="M1.5 5.25L7.62369 9.53658C8.11957 9.8837 8.36751 10.0573 8.6372 10.1245C8.87542 10.1839 9.12458 10.1839 9.3628 10.1245C9.63249 10.0573 9.88043 9.8837 10.3763 9.53658L16.5 5.25M5.1 15H12.9C14.1601 15 14.7902 15 15.2715 14.7548C15.6948 14.539 16.039 14.1948 16.2548 13.7715C16.5 13.2902 16.5 12.6601 16.5 11.4V6.6C16.5 5.33988 16.5 4.70982 16.2548 4.22852C16.039 3.80516 15.6948 3.46095 15.2715 3.24524C14.7902 3 14.1601 3 12.9 3H5.1C3.83988 3 3.20982 3 2.72852 3.24524C2.30516 3.46095 1.96095 3.80516 1.74524 4.22852C1.5 4.70982 1.5 5.33988 1.5 6.6V11.4C1.5 12.6601 1.5 13.2902 1.74524 13.7715C1.96095 14.1948 2.30516 14.539 2.72852 14.7548C3.20982 15 3.83988 15 5.1 15Z" stroke="#D0241F" stroke-linecap="round" stroke-linejoin="round" />
  </symbol>

  <symbol id="ok" width="10" height="10" viewBox="0 0 10 10" fill="none" xmlns="http://www.w3.org/2000/svg">
    <path d="M8.33329 2.5L3.74996 7.08333L1.66663 5" stroke="currentColor" stroke-width="1.5" stroke-linecap="round" stroke-linejoin="round" />
  </symbol>

</svg>