<svg width="70" height="27" viewBox="0 0 70 27" fill="none" xmlns="http://www.w3.org/2000/svg">
<path d="M7.256 21.41L7.664 17.024H19.462L19.836 21.41H7.256ZM13.478 10.938L10.146 18.622L10.418 19.88L7.46 26H0.966L13.478 0.703999L26.024 26H19.496L16.64 20.118L16.844 18.656L13.478 10.938ZM28.518 2.2H34.468V26H28.518V2.2ZM42.56 2.2H49.292L39.636 13.352L49.802 26H42.832L32.802 13.522L42.56 2.2ZM55.494 14.1C55.494 15.5507 55.8227 16.8087 56.48 17.874C57.1374 18.9167 57.9987 19.71 59.064 20.254C60.152 20.798 61.342 21.07 62.634 21.07C63.7674 21.07 64.7647 20.9227 65.626 20.628C66.4874 20.3333 67.258 19.948 67.938 19.472C68.618 18.996 69.2187 18.486 69.74 17.942V24.13C68.788 24.878 67.7454 25.4673 66.612 25.898C65.4787 26.3287 64.0394 26.544 62.294 26.544C60.39 26.544 58.6334 26.2493 57.024 25.66C55.4147 25.0707 54.032 24.2207 52.876 23.11C51.72 21.9993 50.8247 20.6847 50.19 19.166C49.5554 17.6473 49.238 15.9587 49.238 14.1C49.238 12.2413 49.5554 10.5527 50.19 9.034C50.8247 7.51533 51.72 6.20067 52.876 5.09C54.032 3.97933 55.4147 3.12933 57.024 2.54C58.6334 1.95067 60.39 1.656 62.294 1.656C64.0394 1.656 65.4787 1.87133 66.612 2.302C67.7454 2.73267 68.788 3.322 69.74 4.07V10.258C69.2187 9.714 68.618 9.204 67.938 8.728C67.258 8.22933 66.4874 7.844 65.626 7.572C64.7647 7.27733 63.7674 7.13 62.634 7.13C61.342 7.13 60.152 7.402 59.064 7.946C57.9987 8.49 57.1374 9.28333 56.48 10.326C55.8227 11.3687 55.494 12.6267 55.494 14.1Z" fill="#D0241F"/>
</svg>
