<svg width="54" height="21" viewBox="0 0 54 21" fill="none" xmlns="http://www.w3.org/2000/svg">
<path d="M5.784 16.49L6.096 13.136H15.118L15.404 16.49H5.784ZM10.542 8.482L7.994 14.358L8.202 15.32L5.94 20H0.974L10.542 0.656L20.136 20H15.144L12.96 15.502L13.116 14.384L10.542 8.482ZM22.0431 1.8H26.5931V20H22.0431V1.8ZM32.7811 1.8H37.9291L30.5451 10.328L38.3191 20H32.9891L25.3191 10.458L32.7811 1.8ZM42.6719 10.9C42.6719 12.0093 42.9232 12.9713 43.4259 13.786C43.9286 14.5833 44.5872 15.19 45.4019 15.606C46.2339 16.022 47.1439 16.23 48.1319 16.23C48.9986 16.23 49.7612 16.1173 50.4199 15.892C51.0786 15.6667 51.6679 15.372 52.1879 15.008C52.7079 14.644 53.1672 14.254 53.5659 13.838V18.57C52.8379 19.142 52.0406 19.5927 51.1739 19.922C50.3072 20.2513 49.2066 20.416 47.8719 20.416C46.4159 20.416 45.0726 20.1907 43.8419 19.74C42.6112 19.2893 41.5539 18.6393 40.6699 17.79C39.7859 16.9407 39.1012 15.9353 38.6159 14.774C38.1306 13.6127 37.8879 12.3213 37.8879 10.9C37.8879 9.47867 38.1306 8.18733 38.6159 7.026C39.1012 5.86467 39.7859 4.85933 40.6699 4.01C41.5539 3.16067 42.6112 2.51067 43.8419 2.06C45.0726 1.60933 46.4159 1.384 47.8719 1.384C49.2066 1.384 50.3072 1.54867 51.1739 1.878C52.0406 2.20733 52.8379 2.658 53.5659 3.23V7.962C53.1672 7.546 52.7079 7.156 52.1879 6.792C51.6679 6.41067 51.0786 6.116 50.4199 5.908C49.7612 5.68267 48.9986 5.57 48.1319 5.57C47.1439 5.57 46.2339 5.778 45.4019 6.194C44.5872 6.61 43.9286 7.21667 43.4259 8.014C42.9232 8.81133 42.6719 9.77333 42.6719 10.9Z" fill="black"/>
</svg>
