<?xml version="1.0" encoding="UTF-8"?>
<svg xmlns="http://www.w3.org/2000/svg" xmlns:xlink="http://www.w3.org/1999/xlink" width="24px" height="24px" viewBox="0 0 24 24" version="1.1">
<g id="surface1">
<path style=" stroke:none;fill-rule:nonzero;fill:#d0241f;fill-opacity:1;" d="M 23.949219 14.746094 L 22.894531 12 L 23.949219 9.253906 C 24.066406 8.949219 23.972656 8.605469 23.71875 8.402344 L 21.4375 6.550781 L 20.972656 3.644531 C 20.921875 3.328125 20.671875 3.074219 20.351562 3.023438 L 17.445312 2.5625 L 15.597656 0.277344 C 15.390625 0.0273438 15.046875 -0.0664062 14.742188 0.0507812 L 12 1.105469 L 9.253906 0.0507812 C 8.949219 -0.0664062 8.605469 0.0273438 8.402344 0.277344 L 6.550781 2.5625 L 3.648438 3.023438 C 3.328125 3.074219 3.074219 3.328125 3.023438 3.648438 L 2.5625 6.550781 L 0.277344 8.402344 C 0.0273438 8.605469 -0.0664062 8.949219 0.0507812 9.253906 L 1.101562 12 L 0.0507812 14.746094 C -0.0664062 15.050781 0.0273438 15.390625 0.277344 15.597656 L 2.5625 17.449219 L 3.023438 20.351562 C 3.074219 20.671875 3.328125 20.925781 3.648438 20.976562 L 6.550781 21.4375 L 8.402344 23.722656 C 8.609375 23.972656 8.953125 24.066406 9.253906 23.949219 L 12 22.894531 L 14.746094 23.949219 C 14.832031 23.980469 14.925781 24 15.015625 24 C 15.234375 24 15.453125 23.902344 15.597656 23.722656 L 17.449219 21.4375 L 20.351562 20.976562 C 20.671875 20.925781 20.925781 20.671875 20.976562 20.351562 L 21.4375 17.449219 L 23.722656 15.597656 C 23.972656 15.390625 24.066406 15.046875 23.949219 14.746094 Z M 21.390625 12.269531 L 22.351562 14.773438 L 20.265625 16.460938 C 20.121094 16.578125 20.023438 16.742188 19.996094 16.925781 L 19.574219 19.578125 L 16.925781 20 C 16.742188 20.027344 16.578125 20.121094 16.460938 20.265625 L 14.773438 22.351562 L 12.269531 21.390625 C 12.183594 21.359375 12.089844 21.34375 12 21.34375 C 11.90625 21.34375 11.816406 21.359375 11.730469 21.390625 L 9.226562 22.351562 L 7.539062 20.265625 C 7.421875 20.121094 7.253906 20.027344 7.074219 20 L 4.421875 19.578125 L 4 16.925781 C 3.972656 16.742188 3.875 16.578125 3.730469 16.460938 L 1.644531 14.773438 L 2.605469 12.269531 C 2.671875 12.097656 2.671875 11.902344 2.605469 11.730469 L 1.644531 9.226562 L 3.730469 7.535156 C 3.875 7.417969 3.972656 7.253906 4 7.070312 L 4.421875 4.421875 L 7.074219 4 C 7.253906 3.972656 7.421875 3.875 7.539062 3.730469 L 9.222656 1.648438 L 11.730469 2.609375 C 11.902344 2.675781 12.09375 2.675781 12.265625 2.609375 L 14.769531 1.648438 L 16.460938 3.734375 C 16.578125 3.875 16.742188 3.972656 16.925781 4 L 19.574219 4.421875 L 19.996094 7.074219 C 20.023438 7.257812 20.121094 7.421875 20.265625 7.539062 L 22.351562 9.226562 L 21.390625 11.730469 C 21.324219 11.902344 21.324219 12.097656 21.390625 12.269531 Z M 21.390625 12.269531 "/>
<path style=" stroke:none;fill-rule:nonzero;fill:#d0241f;fill-opacity:1;" d="M 9.75 6 C 8.507812 6 7.5 7.011719 7.5 8.25 C 7.5 9.492188 8.507812 10.5 9.75 10.5 C 10.988281 10.5 12 9.492188 12 8.25 C 12 7.011719 10.988281 6 9.75 6 Z M 9.75 9 C 9.335938 9 9 8.664062 9 8.25 C 9 7.835938 9.335938 7.5 9.75 7.5 C 10.164062 7.5 10.5 7.835938 10.5 8.25 C 10.5 8.664062 10.164062 9 9.75 9 Z M 9.75 9 "/>
<path style=" stroke:none;fill-rule:nonzero;fill:#d0241f;fill-opacity:1;" d="M 14.25 13.5 C 13.007812 13.5 12 14.507812 12 15.75 C 12 16.988281 13.007812 18 14.25 18 C 15.488281 18 16.5 16.988281 16.5 15.75 C 16.5 14.507812 15.488281 13.5 14.25 13.5 Z M 14.25 16.5 C 13.835938 16.5 13.5 16.164062 13.5 15.75 C 13.5 15.335938 13.835938 15 14.25 15 C 14.664062 15 15 15.335938 15 15.75 C 15 16.164062 14.664062 16.5 14.25 16.5 Z M 14.25 16.5 "/>
<path style=" stroke:none;fill-rule:nonzero;fill:#d0241f;fill-opacity:1;" d="M 16.183594 6.140625 C 15.847656 5.902344 15.378906 5.980469 15.140625 6.316406 L 7.640625 16.8125 C 7.398438 17.148438 7.476562 17.621094 7.8125 17.859375 C 7.945312 17.953125 8.097656 18 8.25 18 C 8.484375 18 8.714844 17.890625 8.859375 17.6875 L 16.359375 7.1875 C 16.601562 6.847656 16.519531 6.382812 16.183594 6.140625 Z M 16.183594 6.140625 "/>
</g>
</svg>
