<?xml version="1.0" encoding="UTF-8"?>
<svg xmlns="http://www.w3.org/2000/svg" xmlns:xlink="http://www.w3.org/1999/xlink" width="24px" height="24px" viewBox="0 0 24 24" version="1.1">
<g id="surface1">
<path style=" stroke:none;fill-rule:nonzero;fill:#d0241f;fill-opacity:1;" d="M 4.96875 13.410156 C 4.546875 13.410156 4.203125 13.066406 4.203125 12.644531 L 4.203125 0.769531 C 4.203125 0.34375 4.546875 0 4.96875 0 L 23.230469 0 C 23.65625 0 24 0.34375 24 0.769531 C 24 1.191406 23.65625 1.535156 23.230469 1.535156 L 5.738281 1.535156 L 5.738281 12.644531 C 5.738281 13.066406 5.394531 13.410156 4.96875 13.410156 Z M 4.96875 13.410156 "/>
<path style=" stroke:none;fill-rule:nonzero;fill:#d0241f;fill-opacity:1;" d="M 23.230469 24 L 10.898438 24 C 10.472656 24 10.128906 23.65625 10.128906 23.230469 C 10.128906 22.808594 10.472656 22.464844 10.898438 22.464844 L 22.464844 22.464844 L 22.464844 3.316406 C 22.464844 2.894531 22.808594 2.550781 23.230469 2.550781 C 23.65625 2.550781 24 2.894531 24 3.316406 L 24 23.230469 C 24 23.65625 23.65625 24 23.230469 24 Z M 23.230469 24 "/>
<path style=" stroke:none;fill-rule:nonzero;fill:#d0241f;fill-opacity:1;" d="M 14.972656 7.179688 L 7.382812 7.179688 C 6.960938 7.179688 6.617188 6.835938 6.617188 6.410156 C 6.617188 5.988281 6.960938 5.644531 7.382812 5.644531 L 14.972656 5.644531 C 15.394531 5.644531 15.738281 5.988281 15.738281 6.410156 C 15.738281 6.835938 15.394531 7.179688 14.972656 7.179688 Z M 14.972656 7.179688 "/>
<path style=" stroke:none;fill-rule:nonzero;fill:#d0241f;fill-opacity:1;" d="M 14.972656 12.84375 L 7.382812 12.84375 C 6.960938 12.84375 6.617188 12.5 6.617188 12.074219 C 6.617188 11.652344 6.960938 11.308594 7.382812 11.308594 L 14.972656 11.308594 C 15.394531 11.308594 15.738281 11.652344 15.738281 12.074219 C 15.738281 12.5 15.394531 12.84375 14.972656 12.84375 Z M 14.972656 12.84375 "/>
<path style=" stroke:none;fill-rule:nonzero;fill:#d0241f;fill-opacity:1;" d="M 14.972656 18.507812 L 12.285156 18.507812 C 11.859375 18.507812 11.515625 18.164062 11.515625 17.738281 C 11.515625 17.316406 11.859375 16.972656 12.285156 16.972656 L 14.972656 16.972656 C 15.394531 16.972656 15.738281 17.316406 15.738281 17.738281 C 15.738281 18.164062 15.394531 18.507812 14.972656 18.507812 Z M 14.972656 18.507812 "/>
<path style=" stroke:none;fill-rule:nonzero;fill:#d0241f;fill-opacity:1;" d="M 18.226562 8.304688 C 18.027344 8.304688 17.832031 8.226562 17.683594 8.078125 L 16.503906 6.898438 C 16.203125 6.597656 16.203125 6.113281 16.503906 5.8125 C 16.800781 5.511719 17.289062 5.511719 17.589844 5.8125 L 18.226562 6.449219 L 20.265625 4.410156 C 20.5625 4.109375 21.050781 4.109375 21.351562 4.410156 C 21.652344 4.710938 21.652344 5.195312 21.351562 5.496094 L 18.769531 8.078125 C 18.617188 8.226562 18.421875 8.304688 18.226562 8.304688 Z M 18.226562 8.304688 "/>
<path style=" stroke:none;fill-rule:nonzero;fill:#d0241f;fill-opacity:1;" d="M 18.226562 14.066406 C 18.023438 14.066406 17.828125 13.984375 17.683594 13.839844 L 16.503906 12.660156 C 16.203125 12.359375 16.203125 11.875 16.503906 11.574219 C 16.800781 11.277344 17.289062 11.273438 17.589844 11.574219 L 18.226562 12.210938 L 20.265625 10.171875 C 20.5625 9.875 21.050781 9.875 21.351562 10.171875 C 21.652344 10.472656 21.652344 10.960938 21.351562 11.257812 L 18.769531 13.839844 C 18.625 13.984375 18.429688 14.066406 18.226562 14.066406 Z M 18.226562 14.066406 "/>
<path style=" stroke:none;fill-rule:nonzero;fill:#d0241f;fill-opacity:1;" d="M 18.226562 19.828125 C 18.023438 19.828125 17.828125 19.75 17.683594 19.605469 L 16.503906 18.425781 C 16.203125 18.125 16.203125 17.636719 16.503906 17.339844 C 16.800781 17.039062 17.289062 17.039062 17.589844 17.339844 L 18.226562 17.976562 L 20.265625 15.9375 C 20.5625 15.636719 21.050781 15.636719 21.351562 15.9375 C 21.652344 16.238281 21.652344 16.722656 21.351562 17.023438 L 18.769531 19.605469 C 18.625 19.75 18.429688 19.828125 18.226562 19.828125 Z M 18.226562 19.828125 "/>
<path style=" stroke:none;fill-rule:nonzero;fill:#d0241f;fill-opacity:1;" d="M 10.121094 19.042969 C 9.769531 19.042969 9.453125 18.800781 9.371094 18.449219 L 8.667969 15.414062 L 2.222656 15.414062 L 1.515625 18.449219 C 1.421875 18.859375 1.007812 19.121094 0.59375 19.023438 C 0.179688 18.925781 -0.0742188 18.511719 0.0195312 18.097656 L 0.867188 14.46875 C 0.945312 14.121094 1.257812 13.878906 1.613281 13.878906 L 9.277344 13.878906 C 9.632812 13.878906 9.945312 14.121094 10.023438 14.472656 L 10.867188 18.101562 C 10.964844 18.511719 10.707031 18.925781 10.292969 19.023438 C 10.234375 19.035156 10.175781 19.042969 10.121094 19.042969 Z M 10.121094 19.042969 "/>
<path style=" stroke:none;fill-rule:nonzero;fill:#d0241f;fill-opacity:1;" d="M 7.78125 19.042969 C 7.398438 19.042969 7.066406 18.753906 7.019531 18.363281 L 6.597656 14.734375 C 6.550781 14.3125 6.851562 13.929688 7.273438 13.882812 C 7.695312 13.835938 8.074219 14.136719 8.125 14.554688 L 8.546875 18.183594 C 8.59375 18.605469 8.292969 18.988281 7.871094 19.035156 C 7.839844 19.039062 7.808594 19.042969 7.78125 19.042969 Z M 7.78125 19.042969 "/>
<path style=" stroke:none;fill-rule:nonzero;fill:#d0241f;fill-opacity:1;" d="M 5.445312 19.042969 C 5.019531 19.042969 4.675781 18.699219 4.675781 18.273438 L 4.675781 14.644531 C 4.675781 14.21875 5.019531 13.878906 5.445312 13.878906 C 5.867188 13.878906 6.210938 14.21875 6.210938 14.644531 L 6.210938 18.273438 C 6.210938 18.699219 5.867188 19.042969 5.445312 19.042969 Z M 5.445312 19.042969 "/>
<path style=" stroke:none;fill-rule:nonzero;fill:#d0241f;fill-opacity:1;" d="M 3.105469 19.042969 C 3.078125 19.042969 3.046875 19.039062 3.015625 19.035156 C 2.597656 18.988281 2.292969 18.605469 2.34375 18.183594 L 2.765625 14.554688 C 2.816406 14.132812 3.199219 13.835938 3.617188 13.882812 C 4.039062 13.929688 4.34375 14.3125 4.292969 14.734375 L 3.871094 18.363281 C 3.824219 18.753906 3.492188 19.042969 3.105469 19.042969 Z M 3.105469 19.042969 "/>
<path style=" stroke:none;fill-rule:nonzero;fill:#d0241f;fill-opacity:1;" d="M 8.933594 24 L 1.878906 24 C 1.453125 24 1.109375 23.65625 1.109375 23.230469 L 1.109375 19.8125 C 1.109375 19.386719 1.453125 19.042969 1.878906 19.042969 C 2.300781 19.042969 2.644531 19.386719 2.644531 19.8125 L 2.644531 22.464844 L 8.164062 22.464844 L 8.164062 19.8125 C 8.164062 19.386719 8.507812 19.042969 8.933594 19.042969 C 9.355469 19.042969 9.699219 19.386719 9.699219 19.8125 L 9.699219 23.230469 C 9.699219 23.65625 9.355469 24 8.933594 24 Z M 8.933594 24 "/>
</g>
</svg>
