<?xml version="1.0" encoding="UTF-8"?>
<svg xmlns="http://www.w3.org/2000/svg" xmlns:xlink="http://www.w3.org/1999/xlink" width="24px" height="24px" viewBox="0 0 24 24" version="1.1">
<g id="surface1">
<path style=" stroke:none;fill-rule:nonzero;fill:#d0241f;fill-opacity:1;" d="M 18.125 14.269531 C 16.457031 14.269531 15.101562 15.625 15.101562 17.292969 C 15.101562 18.960938 16.457031 20.320312 18.125 20.320312 C 19.792969 20.320312 21.152344 18.960938 21.152344 17.292969 C 21.152344 15.625 19.792969 14.269531 18.125 14.269531 Z M 18.125 18.808594 C 17.292969 18.808594 16.613281 18.128906 16.613281 17.292969 C 16.613281 16.460938 17.292969 15.78125 18.125 15.78125 C 18.960938 15.78125 19.636719 16.460938 19.636719 17.292969 C 19.636719 18.128906 18.960938 18.808594 18.125 18.808594 Z M 18.125 18.808594 "/>
<path style=" stroke:none;fill-rule:nonzero;fill:#d0241f;fill-opacity:1;" d="M 7.789062 14.269531 C 6.121094 14.269531 4.765625 15.625 4.765625 17.292969 C 4.765625 18.960938 6.121094 20.320312 7.789062 20.320312 C 9.457031 20.320312 10.816406 18.960938 10.816406 17.292969 C 10.816406 15.625 9.457031 14.269531 7.789062 14.269531 Z M 7.789062 18.808594 C 6.957031 18.808594 6.277344 18.128906 6.277344 17.292969 C 6.277344 16.460938 6.957031 15.78125 7.789062 15.78125 C 8.625 15.78125 9.300781 16.460938 9.300781 17.292969 C 9.300781 18.128906 8.625 18.808594 7.789062 18.808594 Z M 7.789062 18.808594 "/>
<path style=" stroke:none;fill-rule:nonzero;fill:#d0241f;fill-opacity:1;" d="M 20.164062 5.609375 C 20.035156 5.355469 19.773438 5.191406 19.488281 5.191406 L 15.503906 5.191406 L 15.503906 6.707031 L 19.019531 6.707031 L 21.082031 10.800781 L 22.433594 10.121094 Z M 20.164062 5.609375 "/>
<path style=" stroke:none;fill-rule:nonzero;fill:#d0241f;fill-opacity:1;" d="M 10.132812 16.5625 L 15.855469 16.5625 L 15.855469 18.074219 L 10.132812 18.074219 Z M 10.132812 16.5625 "/>
<path style=" stroke:none;fill-rule:nonzero;fill:#d0241f;fill-opacity:1;" d="M 5.519531 16.5625 L 2.898438 16.5625 C 2.480469 16.5625 2.144531 16.902344 2.144531 17.320312 C 2.144531 17.738281 2.480469 18.074219 2.898438 18.074219 L 5.519531 18.074219 C 5.9375 18.074219 6.277344 17.738281 6.277344 17.320312 C 6.277344 16.902344 5.9375 16.5625 5.519531 16.5625 Z M 5.519531 16.5625 "/>
<path style=" stroke:none;fill-rule:nonzero;fill:#d0241f;fill-opacity:1;" d="M 23.839844 11.941406 L 22.355469 10.023438 C 22.210938 9.839844 21.988281 9.730469 21.757812 9.730469 L 16.261719 9.730469 L 16.261719 4.4375 C 16.261719 4.019531 15.921875 3.679688 15.503906 3.679688 L 2.898438 3.679688 C 2.480469 3.679688 2.144531 4.019531 2.144531 4.4375 C 2.144531 4.855469 2.480469 5.191406 2.898438 5.191406 L 14.746094 5.191406 L 14.746094 10.488281 C 14.746094 10.90625 15.085938 11.242188 15.503906 11.242188 L 21.386719 11.242188 L 22.488281 12.664062 L 22.488281 16.5625 L 20.394531 16.5625 C 19.976562 16.5625 19.636719 16.902344 19.636719 17.320312 C 19.636719 17.738281 19.976562 18.074219 20.394531 18.074219 L 23.242188 18.074219 C 23.660156 18.074219 24 17.738281 24 17.320312 L 24 12.402344 C 24 12.234375 23.945312 12.070312 23.839844 11.941406 Z M 23.839844 11.941406 "/>
<path style=" stroke:none;fill-rule:nonzero;fill:#d0241f;fill-opacity:1;" d="M 5.46875 12.730469 L 1.992188 12.730469 C 1.574219 12.730469 1.234375 13.070312 1.234375 13.488281 C 1.234375 13.90625 1.574219 14.242188 1.992188 14.242188 L 5.46875 14.242188 C 5.886719 14.242188 6.226562 13.90625 6.226562 13.488281 C 6.226562 13.070312 5.886719 12.730469 5.46875 12.730469 Z M 5.46875 12.730469 "/>
<path style=" stroke:none;fill-rule:nonzero;fill:#d0241f;fill-opacity:1;" d="M 7.210938 9.757812 L 0.757812 9.757812 C 0.339844 9.757812 0 10.09375 0 10.511719 C 0 10.929688 0.339844 11.269531 0.757812 11.269531 L 7.210938 11.269531 C 7.628906 11.269531 7.964844 10.929688 7.964844 10.511719 C 7.964844 10.09375 7.628906 9.757812 7.210938 9.757812 Z M 7.210938 9.757812 "/>
<path style=" stroke:none;fill-rule:nonzero;fill:#d0241f;fill-opacity:1;" d="M 8.445312 6.78125 L 1.992188 6.78125 C 1.574219 6.78125 1.234375 7.121094 1.234375 7.539062 C 1.234375 7.957031 1.574219 8.292969 1.992188 8.292969 L 8.445312 8.292969 C 8.863281 8.292969 9.203125 7.957031 9.203125 7.539062 C 9.203125 7.121094 8.863281 6.78125 8.445312 6.78125 Z M 8.445312 6.78125 "/>
</g>
</svg>
