<?xml version="1.0" encoding="UTF-8"?>
<svg xmlns="http://www.w3.org/2000/svg" xmlns:xlink="http://www.w3.org/1999/xlink" width="24px" height="24px" viewBox="0 0 24 24" version="1.1">
<g id="surface1">
<path style=" stroke:none;fill-rule:nonzero;fill:#d0241f;fill-opacity:1;" d="M 23.53125 17.585938 L 23.488281 17.585938 L 23.488281 13.246094 C 23.488281 12.222656 22.65625 11.390625 21.636719 11.390625 L 21.363281 11.390625 L 17.839844 6.644531 L 17.839844 3.753906 C 17.839844 2.691406 16.976562 1.828125 15.914062 1.828125 L 2.4375 1.828125 C 1.375 1.828125 0.511719 2.691406 0.511719 3.753906 L 0.511719 17.585938 L 0.46875 17.585938 C 0.210938 17.585938 0 17.796875 0 18.054688 L 0 20.160156 C 0 20.421875 0.210938 20.628906 0.46875 20.628906 L 2.671875 20.628906 C 2.984375 21.527344 3.839844 22.171875 4.839844 22.171875 C 5.839844 22.171875 6.695312 21.527344 7.007812 20.628906 L 16.996094 20.628906 C 17.304688 21.527344 18.160156 22.171875 19.160156 22.171875 C 20.160156 22.171875 21.015625 21.527344 21.328125 20.628906 L 23.53125 20.628906 C 23.789062 20.628906 24 20.421875 24 20.160156 L 24 18.054688 C 24 17.796875 23.789062 17.585938 23.53125 17.585938 Z M 22.550781 15.550781 L 20.984375 15.550781 L 20.984375 14.554688 L 22.550781 14.554688 Z M 20.195312 11.390625 L 19.03125 11.390625 C 18.773438 11.390625 18.5625 11.601562 18.5625 11.859375 C 18.5625 12.121094 18.773438 12.328125 19.03125 12.328125 L 21.636719 12.328125 C 22.140625 12.328125 22.550781 12.738281 22.550781 13.246094 L 22.550781 13.617188 L 20.515625 13.617188 C 20.253906 13.617188 20.046875 13.828125 20.046875 14.085938 L 20.046875 16.019531 C 20.046875 16.277344 20.253906 16.488281 20.515625 16.488281 L 22.550781 16.488281 L 22.550781 17.585938 L 17.839844 17.585938 L 17.839844 8.214844 Z M 6.6875 18.523438 L 17.3125 18.523438 C 17.066406 18.859375 16.910156 19.257812 16.875 19.691406 L 7.125 19.691406 C 7.089844 19.257812 6.933594 18.859375 6.6875 18.523438 Z M 1.449219 3.753906 C 1.449219 3.210938 1.890625 2.765625 2.4375 2.765625 L 15.914062 2.765625 C 16.460938 2.765625 16.902344 3.207031 16.902344 3.753906 L 16.902344 17.585938 L 1.449219 17.585938 Z M 0.9375 18.523438 L 2.992188 18.523438 C 2.746094 18.859375 2.589844 19.257812 2.554688 19.691406 L 0.9375 19.691406 Z M 4.839844 21.234375 C 4.09375 21.234375 3.484375 20.625 3.484375 19.878906 C 3.484375 19.132812 4.09375 18.523438 4.839844 18.523438 C 5.585938 18.523438 6.195312 19.132812 6.195312 19.878906 C 6.195312 20.625 5.585938 21.234375 4.839844 21.234375 Z M 19.160156 21.234375 C 18.414062 21.234375 17.804688 20.625 17.804688 19.878906 C 17.804688 19.132812 18.414062 18.523438 19.160156 18.523438 C 19.90625 18.523438 20.515625 19.132812 20.515625 19.878906 C 20.515625 20.625 19.90625 21.234375 19.160156 21.234375 Z M 23.0625 19.691406 L 21.445312 19.691406 C 21.410156 19.257812 21.253906 18.859375 21.007812 18.523438 L 23.0625 18.523438 Z M 23.0625 19.691406 "/>
<path style=" stroke:none;fill-rule:nonzero;fill:#d0241f;fill-opacity:1;" d="M 15.777344 15.066406 L 15.777344 5.542969 C 15.777344 5.28125 15.570312 5.074219 15.308594 5.074219 L 3.042969 5.074219 C 2.78125 5.074219 2.574219 5.28125 2.574219 5.542969 L 2.574219 15.066406 C 2.574219 15.324219 2.78125 15.535156 3.042969 15.535156 L 15.308594 15.535156 C 15.570312 15.535156 15.777344 15.324219 15.777344 15.066406 Z M 14.839844 14.597656 L 3.511719 14.597656 L 3.511719 6.011719 L 14.839844 6.011719 Z M 14.839844 14.597656 "/>
<path style=" stroke:none;fill-rule:nonzero;fill:#d0241f;fill-opacity:1;" d="M 4.941406 11.953125 C 5.199219 11.953125 5.410156 11.746094 5.410156 11.484375 L 5.410156 10.765625 L 5.8125 10.765625 C 6.070312 10.765625 6.28125 10.554688 6.28125 10.296875 C 6.28125 10.039062 6.070312 9.828125 5.8125 9.828125 L 5.410156 9.828125 L 5.410156 9.621094 L 5.886719 9.621094 C 6.148438 9.621094 6.355469 9.410156 6.355469 9.152344 C 6.355469 8.894531 6.148438 8.683594 5.886719 8.683594 L 4.941406 8.683594 C 4.683594 8.683594 4.472656 8.894531 4.472656 9.152344 L 4.472656 11.484375 C 4.472656 11.746094 4.683594 11.953125 4.941406 11.953125 Z M 4.941406 11.953125 "/>
<path style=" stroke:none;fill-rule:nonzero;fill:#d0241f;fill-opacity:1;" d="M 9.988281 11.953125 L 10.96875 11.953125 C 11.226562 11.953125 11.4375 11.746094 11.4375 11.484375 C 11.4375 11.226562 11.226562 11.015625 10.96875 11.015625 L 10.457031 11.015625 L 10.457031 10.789062 L 10.894531 10.789062 C 11.152344 10.789062 11.363281 10.578125 11.363281 10.320312 C 11.363281 10.0625 11.152344 9.851562 10.894531 9.851562 L 10.457031 9.851562 L 10.457031 9.625 L 10.96875 9.625 C 11.226562 9.625 11.4375 9.414062 11.4375 9.15625 C 11.4375 8.898438 11.226562 8.6875 10.96875 8.6875 L 9.988281 8.6875 C 9.726562 8.6875 9.519531 8.898438 9.519531 9.15625 L 9.519531 11.484375 C 9.519531 11.746094 9.726562 11.953125 9.988281 11.953125 Z M 9.988281 11.953125 "/>
<path style=" stroke:none;fill-rule:nonzero;fill:#d0241f;fill-opacity:1;" d="M 12.429688 11.953125 L 13.410156 11.953125 C 13.667969 11.953125 13.878906 11.746094 13.878906 11.484375 C 13.878906 11.226562 13.667969 11.015625 13.410156 11.015625 L 12.898438 11.015625 L 12.898438 10.789062 L 13.335938 10.789062 C 13.597656 10.789062 13.804688 10.578125 13.804688 10.320312 C 13.804688 10.0625 13.597656 9.851562 13.335938 9.851562 L 12.898438 9.851562 L 12.898438 9.625 L 13.410156 9.625 C 13.667969 9.625 13.878906 9.414062 13.878906 9.15625 C 13.878906 8.898438 13.667969 8.6875 13.410156 8.6875 L 12.429688 8.6875 C 12.167969 8.6875 11.960938 8.898438 11.960938 9.15625 L 11.960938 11.484375 C 11.960938 11.746094 12.167969 11.953125 12.429688 11.953125 Z M 12.429688 11.953125 "/>
<path style=" stroke:none;fill-rule:nonzero;fill:#d0241f;fill-opacity:1;" d="M 7.296875 11.941406 C 7.554688 11.941406 7.765625 11.730469 7.765625 11.472656 L 7.765625 11.269531 L 8.214844 11.78125 C 8.308594 11.886719 8.4375 11.941406 8.566406 11.941406 C 8.675781 11.941406 8.789062 11.902344 8.875 11.824219 C 9.070312 11.652344 9.089844 11.355469 8.917969 11.164062 L 8.480469 10.664062 C 8.8125 10.476562 9.035156 10.128906 9.035156 9.734375 C 9.035156 9.136719 8.535156 8.652344 7.921875 8.652344 L 7.296875 8.652344 C 7.039062 8.652344 6.828125 8.863281 6.828125 9.121094 L 6.828125 11.472656 C 6.828125 11.730469 7.039062 11.941406 7.296875 11.941406 Z M 7.921875 9.589844 C 8.015625 9.589844 8.097656 9.65625 8.097656 9.734375 C 8.097656 9.808594 8.015625 9.875 7.921875 9.875 C 7.882812 9.875 7.828125 9.875 7.765625 9.875 C 7.765625 9.820312 7.765625 9.769531 7.765625 9.734375 C 7.765625 9.699219 7.765625 9.648438 7.765625 9.589844 Z M 7.921875 9.589844 "/>
</g>
</svg>
