<svg xmlns="http://www.w3.org/2000/svg" width="24px" height="24px" viewBox="0 0 24 24" version="1.1">
<g id="surface1">
<path style=" stroke:none;fill-rule:nonzero;fill:#d0241f;fill-opacity:1;" d="M 24 11.226562 C 24 10.625 23.765625 10.054688 23.339844 9.628906 L 19.789062 6.082031 C 19.367188 5.660156 18.789062 5.417969 18.195312 5.417969 C 17.601562 5.417969 17.019531 5.660156 16.597656 6.082031 L 15.007812 7.671875 L 14.910156 7.054688 C 14.769531 6.160156 14.046875 5.507812 13.160156 5.433594 L 13.160156 4.644531 C 13.160156 2.082031 11.078125 0 8.515625 0 C 5.953125 0 3.871094 2.082031 3.871094 4.644531 L 3.871094 5.433594 C 2.984375 5.507812 2.261719 6.160156 2.121094 7.054688 L 0.0390625 20.234375 C 0.0117188 20.402344 0 20.570312 0 20.742188 C 0 22.539062 1.460938 24 3.257812 24 L 13.773438 24 C 15.570312 24 17.03125 22.539062 17.03125 20.742188 C 17.03125 20.570312 17.019531 20.402344 16.992188 20.234375 L 16.847656 19.3125 L 23.339844 12.820312 C 23.765625 12.394531 24 11.828125 24 11.226562 Z M 19.96875 7.355469 L 11.226562 16.097656 L 10.613281 15.484375 L 19.355469 6.742188 Z M 12.386719 10.292969 L 10.292969 12.386719 L 5.03125 12.386719 C 4.820312 12.386719 4.644531 12.214844 4.644531 12 L 4.644531 8.902344 C 4.644531 8.691406 4.820312 8.515625 5.03125 8.515625 L 12 8.515625 C 12.214844 8.515625 12.386719 8.691406 12.386719 8.902344 Z M 17.144531 6.628906 C 17.421875 6.351562 17.804688 6.195312 18.195312 6.195312 C 18.371094 6.195312 18.542969 6.230469 18.710938 6.292969 L 10.160156 14.839844 C 10.101562 14.675781 10.066406 14.503906 10.066406 14.324219 C 10.066406 13.933594 10.222656 13.550781 10.5 13.273438 Z M 8.515625 0.773438 C 10.652344 0.773438 12.386719 2.511719 12.386719 4.644531 L 12.386719 5.417969 L 4.644531 5.417969 L 4.644531 4.644531 C 4.644531 2.511719 6.382812 0.773438 8.515625 0.773438 Z M 13.773438 23.226562 L 3.257812 23.226562 C 1.886719 23.226562 0.773438 22.113281 0.773438 20.742188 C 0.773438 20.613281 0.785156 20.480469 0.804688 20.355469 L 2.886719 7.171875 C 2.976562 6.605469 3.457031 6.195312 4.03125 6.195312 L 13 6.195312 C 13.574219 6.195312 14.058594 6.605469 14.148438 7.171875 L 14.332031 8.347656 L 13.160156 9.515625 L 13.160156 8.902344 C 13.160156 8.261719 12.640625 7.742188 12 7.742188 L 5.03125 7.742188 C 4.390625 7.742188 3.871094 8.261719 3.871094 8.902344 L 3.871094 12 C 3.871094 12.640625 4.390625 13.160156 5.03125 13.160156 L 9.617188 13.160156 C 9.40625 13.511719 9.289062 13.914062 9.289062 14.324219 C 9.289062 14.925781 9.523438 15.492188 9.949219 15.917969 L 13.5 19.46875 C 13.921875 19.886719 14.503906 20.128906 15.097656 20.128906 C 15.464844 20.128906 15.828125 20.035156 16.152344 19.867188 L 16.226562 20.355469 C 16.25 20.480469 16.257812 20.613281 16.257812 20.742188 C 16.257812 22.113281 15.144531 23.226562 13.773438 23.226562 Z M 22.792969 12.273438 L 16.683594 18.382812 L 16.679688 18.378906 L 16.15625 18.90625 L 16.144531 18.921875 C 15.867188 19.195312 15.488281 19.355469 15.097656 19.355469 C 14.707031 19.355469 14.324219 19.195312 14.050781 18.921875 L 11.773438 16.644531 L 20.515625 7.902344 L 22.792969 10.179688 C 23.070312 10.457031 23.226562 10.832031 23.226562 11.226562 C 23.226562 11.621094 23.070312 11.992188 22.792969 12.273438 Z M 22.792969 12.273438 "/>
<path style=" stroke:none;fill-rule:nonzero;fill:#d0241f;fill-opacity:1;" d="M 18.035156 12.386719 L 19.742188 14.097656 L 22.613281 11.226562 L 20.902344 9.515625 Z M 19.742188 13 L 19.128906 12.386719 L 20.902344 10.613281 L 21.515625 11.226562 Z M 19.742188 13 "/>
<path style=" stroke:none;fill-rule:nonzero;fill:#d0241f;fill-opacity:1;" d="M 14.4375 17.917969 L 16.371094 15.984375 L 16.917969 16.53125 L 14.984375 18.46875 Z M 14.4375 17.917969 "/>
<path style=" stroke:none;fill-rule:nonzero;fill:#d0241f;fill-opacity:1;" d="M 13.273438 16.757812 L 15.984375 14.050781 L 16.53125 14.597656 L 13.820312 17.304688 Z M 13.273438 16.757812 "/>
<path style=" stroke:none;fill-rule:nonzero;fill:#d0241f;fill-opacity:1;" d="M 6.195312 21.675781 L 6.96875 21.675781 L 6.96875 22.453125 L 6.195312 22.453125 Z M 6.195312 21.675781 "/>
<path style=" stroke:none;fill-rule:nonzero;fill:#d0241f;fill-opacity:1;" d="M 2.324219 20.742188 C 2.324219 20.691406 2.328125 20.644531 2.332031 20.597656 L 2.582031 19.027344 L 1.816406 18.90625 L 1.570312 20.472656 C 1.554688 20.5625 1.546875 20.652344 1.546875 20.742188 C 1.546875 21.683594 2.316406 22.453125 3.257812 22.453125 L 5.417969 22.453125 L 5.417969 21.675781 L 3.257812 21.675781 C 2.742188 21.675781 2.324219 21.257812 2.324219 20.742188 Z M 2.324219 20.742188 "/>
</g>
</svg>
